<svg width="18" height="14" viewBox="0 0 15 14" fill="none" xmlns="http://www.w3.org/2000/svg">
<path d="M7.46447 0.585786C8.24551 -0.195263 9.51184 -0.195262 10.2929 0.585787L14.1716 4.46447C14.9526 5.24551 14.9526 6.51184 14.1716 7.29289L8.67157 12.7929C8.2965 13.168 7.78779 13.3787 7.25736 13.3787H4.5C3.96957 13.3787 3.46086 13.168 3.08579 12.7929L0.585786 10.2929C-0.195263 9.51184 -0.195261 8.24551 0.585787 7.46446L7.46447 0.585786ZM9.58579 1.29289C9.19526 0.902369 8.5621 0.902369 8.17157 1.29289L5.85524 3.60922L3.53891 5.92555L8.8318 11.2184L13.4645 6.58578C13.855 6.19526 13.855 5.5621 13.4645 5.17157L9.58579 1.29289ZM8.1247 11.9256L2.8318 6.63266L1.29289 8.17157C0.902369 8.5621 0.902369 9.19526 1.29289 9.58579L3.79289 12.0858C3.98043 12.2733 4.23478 12.3787 4.5 12.3787H7.25736C7.52258 12.3787 7.77693 12.2733 7.96447 12.0858L8.1247 11.9256Z" fill="#058DF4"/>
<path d="M7.4673 1.67287L4.41871 4.46742C3.57934 5.23684 3.55079 6.55079 4.35594 7.35594L7.40187 10.4019C8.20702 11.207 9.52097 11.1785 10.2904 10.3391L13.0849 7.29051C13.8085 6.50117 13.782 5.282 13.0248 4.52484L10.233 1.73297C9.47581 0.97581 8.25664 0.94932 7.4673 1.67287Z" fill="#058DF4" stroke="#058DF4" stroke-width="0.5"/>
<path d="M13.8782 12.8789H7.38477" stroke="#058DF4" stroke-linecap="round" stroke-linejoin="round"/>
</svg>
