<svg xmlns="http://www.w3.org/2000/svg" width="20" height="20" viewBox="0 0 20 20" fill="none">
  <path d="M16.3591 15C17.0979 14.5681 17.6815 13.8846 18.0179 13.0574C18.3543 12.2302 18.4242 11.3065 18.2166 10.4319C18.0091 9.55741 17.5358 8.78191 16.8716 8.22784C16.2075 7.67377 15.3901 7.37267 14.5486 7.37208H13.5942C13.3649 6.42102 12.9375 5.53807 12.3442 4.78962C11.751 4.04118 11.0072 3.4467 10.1688 3.05089C9.33044 2.65508 8.41931 2.46824 7.50391 2.50441C6.58852 2.54058 5.69268 2.79882 4.88375 3.25971C4.07481 3.72061 3.37384 4.37217 2.83352 5.16541C2.29319 5.95864 1.92759 6.87292 1.76419 7.8395C1.60079 8.80607 1.64384 9.79979 1.89011 10.746C2.13638 11.6921 2.57946 12.5661 3.18604 13.3022" stroke="#3AB7B0" stroke-width="1.5" stroke-linecap="round" stroke-linejoin="round"/>
  <path d="M9.69824 10.8335V17.654" stroke="#3AB7B0" stroke-width="1.5" stroke-linecap="round" stroke-linejoin="round"/>
  <path d="M12.7297 13.8648L9.69833 10.8335L6.66699 13.8648" stroke="#3AB7B0" stroke-width="1.5" stroke-linecap="round" stroke-linejoin="round"/>
</svg>