<svg xmlns="http://www.w3.org/2000/svg" width="16" height="22" viewBox="0 0 16 22" fill="none">
<path fill-rule="evenodd" clip-rule="evenodd" d="M8.34455 20.6619C4.65273 20.6619 1.5 20.0874 1.5 17.7866C1.5 15.4859 4.63273 13.3619 8.34455 13.3619C12.0364 13.3619 15.1891 15.4653 15.1891 17.766C15.1891 20.0659 12.0564 20.6619 8.34455 20.6619Z" stroke="#7E8CA0" stroke-width="1.5" stroke-linecap="round" stroke-linejoin="round"/>
<path fill-rule="evenodd" clip-rule="evenodd" d="M8.33749 10.1736C10.7602 10.1736 12.7239 8.20999 12.7239 5.78727C12.7239 3.36454 10.7602 1.39999 8.33749 1.39999C5.91477 1.39999 3.95022 3.36454 3.95022 5.78727C3.94204 8.20181 5.89204 10.1654 8.30658 10.1736C8.31749 10.1736 8.32749 10.1736 8.33749 10.1736Z" stroke="#7E8CA0" stroke-width="1.5" stroke-linecap="round" stroke-linejoin="round"/>
</svg>