<svg xmlns="http://www.w3.org/2000/svg" width="15" height="13" viewBox="0 0 15 13" fill="none">
  <path fill-rule="evenodd" clip-rule="evenodd" d="M7.49966 4.73096C6.50216 4.73096 5.69141 5.54246 5.69141 6.53996C5.69141 7.53671 6.50216 8.34746 7.49966 8.34746C8.49716 8.34746 9.30866 7.53671 9.30866 6.53996C9.30866 5.54246 8.49716 4.73096 7.49966 4.73096ZM7.49966 9.47246C5.88191 9.47246 4.56641 8.15696 4.56641 6.53996C4.56641 4.92221 5.88191 3.60596 7.49966 3.60596C9.11741 3.60596 10.4337 4.92221 10.4337 6.53996C10.4337 8.15696 9.11741 9.47246 7.49966 9.47246Z" fill="#394B76"/>
  <mask id="mask0_2513_742" style="mask-type:luminance" maskUnits="userSpaceOnUse" x="0" y="0" width="15" height="13">
    <path fill-rule="evenodd" clip-rule="evenodd" d="M0 0.5H14.9999V12.5787H0V0.5Z" fill="white"/>
  </mask>
  <g mask="url(#mask0_2513_742)">
    <path fill-rule="evenodd" clip-rule="evenodd" d="M1.17731 6.53907C2.57231 9.62082 4.92206 11.4531 7.49981 11.4538C10.0776 11.4531 12.4273 9.62082 13.8223 6.53907C12.4273 3.45807 10.0776 1.62582 7.49981 1.62507C4.92281 1.62582 2.57231 3.45807 1.17731 6.53907ZM7.50131 12.5788H7.49831H7.49756C4.39556 12.5766 1.61006 10.4023 0.0455625 6.76107C-0.0151875 6.61932 -0.0151875 6.45882 0.0455625 6.31707C1.61006 2.67657 4.39631 0.502324 7.49756 0.500074C7.49906 0.499324 7.49906 0.499324 7.49981 0.500074C7.50131 0.499324 7.50131 0.499324 7.50206 0.500074C10.6041 0.502324 13.3896 2.67657 14.9541 6.31707C15.0156 6.45882 15.0156 6.61932 14.9541 6.76107C13.3903 10.4023 10.6041 12.5766 7.50206 12.5788H7.50131Z" fill="#394B76"/>
  </g>
</svg>